<svg width="30" height="29" viewBox="0 0 30 29" fill="none" xmlns="http://www.w3.org/2000/svg">
<path fill-rule="evenodd" clip-rule="evenodd" d="M1.61965 1.5H28.3804C28.4439 1.5 28.5 1.55233 28.5 1.62255V16.1956L1.5 16.1956V1.62255C1.5 1.55234 1.5561 1.5 1.61965 1.5ZM1.5 17.6956V20.3038C1.5 20.3741 1.5561 20.4264 1.61965 20.4264H28.3804C28.4439 20.4264 28.5 20.3741 28.5 20.3038V17.6956L1.5 17.6956ZM28.3804 0H1.61965C0.725142 0 0 0.726442 0 1.62255V20.3038C0 21.1999 0.725142 21.9264 1.61965 21.9264H28.3804C29.2749 21.9264 30 21.1999 30 20.3038V1.62255C30 0.726442 29.2749 0 28.3804 0ZM12.5693 26.5118H17.4316V21.9264H18.9316V26.5118H23.1279V28.0118H6.87305V26.5118H11.0693V21.9264H12.5693V26.5118Z" fill="white"/>
</svg>
