<svg width="17" height="28" viewBox="0 0 17 28" fill="none" xmlns="http://www.w3.org/2000/svg">
<path fill-rule="evenodd" clip-rule="evenodd" d="M2.5506 1.5H14.2083C14.7929 1.5 15.2589 1.97121 15.2589 2.54274V3.40241L1.5 3.4024V2.54274C1.5 1.97121 1.966 1.5 2.5506 1.5ZM1.5 4.9024V21.0864L15.2589 21.0864V4.90241L1.5 4.9024ZM15.2589 22.5864L1.5 22.5864V25.4573C1.5 26.0288 1.966 26.5 2.5506 26.5H14.2083C14.7929 26.5 15.2589 26.0288 15.2589 25.4573V22.5864ZM14.2083 0H2.5506C1.14194 0 0 1.13842 0 2.54274V25.4573C0 26.8616 1.14194 28 2.5506 28H14.2083C15.617 28 16.7589 26.8616 16.7589 25.4573V2.54274C16.7589 1.13842 15.617 0 14.2083 0ZM7.15723 25.2062H9.6028V23.7062H7.15723V25.2062Z" fill="#616E81" fill-opacity="0.4"/>
</svg>
